# xmcd
#
# Track frame offsets: 
#        150
#        10256
#        21832
#        32444
#        41970
#        51826
#        62816
#        73325
#        84468
#        95536
#        105550
#        118263
#        128619
#        139818
#        151479
#        163200
#
# Disc length: 2342 seconds
#
# Revision: 0
# Processed by: cddbd v1.5.2PL0 Copyright (c) Steve Scherf et al.
# Submitted via: ExactAudioCopyFreeDBPlugin 1.0
#
DISCID=df092410
DTITLE=Buck Owens - Four Classic Albums CD-4
DYEAR=1900
DGENRE=Country
TTITLE0=You're For Me
TTITLE1=Fool Me Again
TTITLE2=Down On The Corner Of Love
TTITLE3=Mexican Polka
TTITLE4=Mirror Mirror On The Wall
TTITLE5=Bad Bad Dream
TTITLE6=Under The Influence Of Love
TTITLE7=Nobody's Fool But Yours
TTITLE8=The House Down The Block
TTITLE9=Country Polka
TTITLE10=Goin' Down To The River
TTITLE11=Blues For Life
TTITLE12=Save The Last Dance For Me
TTITLE13=The King Of The Fools
TTITLE14=Kickin' Our Hearts Around
TTITLE15=I Can't Stop (My Lovin' You)
EXTD=
EXTT0=
EXTT1=
EXTT2=
EXTT3=
EXTT4=
EXTT5=
EXTT6=
EXTT7=
EXTT8=
EXTT9=
EXTT10=
EXTT11=
EXTT12=
EXTT13=
EXTT14=
EXTT15=
PLAYORDER=
